<svg width="30" height="30" viewBox="0 0 30 30" fill="none" xmlns="http://www.w3.org/2000/svg">
<g filter="url(#filter0_i)">
<path d="M2.28601 19.5286V20.9342C2.28612 21.2326 2.35759 21.5266 2.49435 21.7912C2.63111 22.0559 2.82909 22.2831 3.07145 22.4538L8.58529 16.8828L7.05665 15.3383C7.01574 15.297 6.96719 15.2643 6.91376 15.2419C6.86035 15.2195 6.80306 15.2081 6.74524 15.2081C6.6874 15.2081 6.63013 15.2195 6.57672 15.2419C6.52329 15.2643 6.47474 15.297 6.43383 15.3383L2.28601 19.5286Z" fill="url(#paint0_linear)"/>
<path d="M6.74479 13.5146C6.92964 13.5142 7.11274 13.5506 7.2835 13.6223C7.45427 13.6937 7.60929 13.7988 7.73958 13.9311L9.62254 15.8335L13.4886 11.9275C13.8895 11.5231 14.433 11.2959 14.9996 11.2959C15.5662 11.2959 16.1098 11.5231 16.5108 11.9275L21.8863 17.3587L23.5477 15.6801C23.8118 15.4139 24.1694 15.2644 24.5425 15.2644C24.9154 15.2644 25.2732 15.4139 25.5372 15.6801L27.7135 17.8806V8.24196C27.7135 7.91649 27.6286 7.59676 27.4674 7.31491C27.3063 7.03304 27.0747 6.799 26.7957 6.63625L15.9173 0.290502C15.6383 0.127742 15.3217 0.0420532 14.9995 0.0420532C14.6773 0.0420532 14.3608 0.127742 14.0818 0.290502L3.20313 6.63625C2.92416 6.799 2.69248 7.03304 2.53138 7.31491C2.37029 7.59676 2.28546 7.91649 2.2854 8.24196V17.4308L5.74939 13.9309C5.87978 13.7985 6.03492 13.6934 6.20578 13.6221C6.37666 13.5506 6.55987 13.514 6.74479 13.5146Z" fill="url(#paint1_linear)"/>
<path d="M22.9242 18.4083L26.9274 22.4536C27.1698 22.2829 27.3677 22.0556 27.5044 21.7911C27.6411 21.5264 27.7125 21.2324 27.7126 20.9339V19.978L24.8526 17.0884C24.7701 17.0049 24.658 16.9581 24.5412 16.9581C24.4243 16.9581 24.3123 17.0049 24.2297 17.0884L22.9242 18.4083Z" fill="url(#paint2_linear)"/>
<path d="M21.886 19.4566L20.8482 18.4083L15.4726 12.9772C15.3471 12.8506 15.1771 12.7796 14.9998 12.7796C14.8226 12.7796 14.6526 12.8506 14.5271 12.9772L10.6611 16.8832L9.62312 17.932L4.38208 23.2266L14.0816 28.885C14.3606 29.0476 14.6771 29.1334 14.9993 29.1334C15.3215 29.1334 15.6381 29.0476 15.917 28.885L25.6165 23.2266L21.886 19.4566Z" fill="url(#paint3_linear)"/>
</g>
<defs>
<filter id="filter0_i" x="2.2854" y="0.0420532" width="25.4281" height="29.5037" filterUnits="userSpaceOnUse" color-interpolation-filters="sRGB">
<feFlood flood-opacity="0" result="BackgroundImageFix"/>
<feBlend mode="normal" in="SourceGraphic" in2="BackgroundImageFix" result="shape"/>
<feColorMatrix in="SourceAlpha" type="matrix" values="0 0 0 0 0 0 0 0 0 0 0 0 0 0 0 0 0 0 127 0" result="hardAlpha"/>
<feOffset dy="0.412371"/>
<feGaussianBlur stdDeviation="0.206186"/>
<feComposite in2="hardAlpha" operator="arithmetic" k2="-1" k3="1"/>
<feColorMatrix type="matrix" values="0 0 0 0 0 0 0 0 0 0 0 0 0 0 0 0 0 0 0.25 0"/>
<feBlend mode="normal" in2="shape" result="effect1_innerShadow"/>
</filter>
<linearGradient id="paint0_linear" x1="5.43564" y1="0.267044" x2="5.43564" y2="29.2504" gradientUnits="userSpaceOnUse">
<stop offset="0.004" stop-color="white"/>
<stop offset="0.432292" stop-color="white"/>
<stop offset="0.5" stop-color="white"/>
<stop offset="1" stop-color="white"/>
</linearGradient>
<linearGradient id="paint1_linear" x1="14.9994" y1="0.273956" x2="14.9994" y2="29.2618" gradientUnits="userSpaceOnUse">
<stop offset="0.004" stop-color="white"/>
<stop offset="0.5" stop-color="white"/>
</linearGradient>
<linearGradient id="paint2_linear" x1="25.3185" y1="0.267781" x2="25.3185" y2="29.2519" gradientUnits="userSpaceOnUse">
<stop offset="0.004" stop-color="white"/>
<stop offset="0.5" stop-color="white"/>
<stop offset="1" stop-color="white"/>
</linearGradient>
<linearGradient id="paint3_linear" x1="14.9993" y1="0.26895" x2="14.9993" y2="29.2478" gradientUnits="userSpaceOnUse">
<stop offset="0.004" stop-color="white"/>
<stop offset="0.5" stop-color="white"/>
<stop offset="1" stop-color="white"/>
</linearGradient>
</defs>
</svg>
